<?xml version="1.0" encoding="UTF-8" standalone="no"?>
<!-- Created with Inkscape (http://www.inkscape.org/) -->

<svg
   width="44.999996mm"
   height="50.000004mm"
   viewBox="0 0 44.999996 50.000004"
   version="1.1"
   id="svg1"
   xml:space="preserve"
   xmlns:xlink="http://www.w3.org/1999/xlink"
   xmlns="http://www.w3.org/2000/svg"
   xmlns:svg="http://www.w3.org/2000/svg"><defs
     id="defs1"><linearGradient
       id="linearGradient13"><stop
         style="stop-color:#f25ff8;stop-opacity:1;"
         offset="0"
         id="stop13" /><stop
         style="stop-color:#f48484;stop-opacity:1;"
         offset="1"
         id="stop14" /></linearGradient><linearGradient
       xlink:href="#linearGradient13"
       id="linearGradient15"
       gradientUnits="userSpaceOnUse"
       x1="6.1327758"
       y1="17.345346"
       x2="39.203518"
       y2="33.475025" /></defs><g
     id="layer1"><path
       id="path9"
       style="fill:url(#linearGradient15);fill-rule:nonzero;stroke:none;stroke-width:0;stroke-dasharray:none;stroke-opacity:1"
       d="m 23.931149,3.5772804 c -3.185479,0.065039 -5.829518,2.7099159 -5.943986,5.9369777 -0.115579,3.2593889 2.386436,5.9357139 5.628156,5.9480549 3.285235,0.01274 6.028833,-2.708322 6.087155,-6.0466948 C 29.760168,6.1111563 27.158621,3.51116 23.931149,3.5772804 Z M 23.386587,16.897425 c -1.013866,-0.0069 -1.851757,0.825789 -1.882694,1.869563 l -0.301074,10.157668 c -0.032,1.079593 0.771819,1.980747 1.806474,2.017678 l 0.388628,0.01387 c 1.040735,0.03715 1.90235,-0.811992 1.927923,-1.900991 l 0.240575,-10.244712 c 0.02472,-1.052569 -0.779337,-1.90351 -1.799036,-1.910476 z m -5.878366,1.529419 c -0.233031,-0.0019 -0.471643,0.04397 -0.703648,0.142526 l -8.7694209,3.725447 c -0.9041202,0.384099 -1.3693651,1.46087 -1.0439267,2.41919 l 0.122138,0.360295 c 0.327436,0.964203 1.3264297,1.436274 2.2403054,1.053664 l 8.8651362,-3.711952 c 0.939172,-0.393202 1.40551,-1.493721 1.044875,-2.462822 L 19.129137,19.59157 C 18.860188,18.868845 18.20867,18.432633 17.508221,18.426844 Z m 12.205789,0.123194 c -0.734197,-0.0087 -1.436809,0.422213 -1.755345,1.15165 l -0.159064,0.364322 c -0.42541,0.974175 -0.0035,2.10802 0.950934,2.543323 l 9.389889,4.282826 c 1.008832,0.460116 2.17261,0.0163 2.604185,-0.996076 l 0.161364,-0.379113 c 0.430771,-1.010486 -0.04041,-2.185407 -1.051078,-2.633638 L 30.447713,18.71132 C 30.208172,18.605084 29.95923,18.552951 29.71401,18.550038 Z M 19.618073,32.484117 c -0.655626,-0.0087 -1.291321,0.353997 -1.632878,1.00543 l -4.776946,9.111047 c -0.501711,0.956885 -0.195208,2.182435 0.692089,2.74917 l 0.333459,0.21289 c 0.893774,0.57087 2.023904,0.252264 2.529232,-0.715831 l 4.811613,-9.217267 c 0.500267,-0.958398 0.169793,-2.161219 -0.735819,-2.695218 l -0.337884,-0.199142 c -0.281473,-0.165973 -0.584277,-0.247115 -0.882866,-0.251079 z m 7.196282,0.281619 c -0.306747,-0.01987 -0.621703,0.038 -0.918179,0.183009 l -0.35447,0.173541 c -0.946441,0.462907 -1.343801,1.641091 -0.890549,2.647122 l 4.451966,9.880722 c 0.477504,1.059861 1.655043,1.546381 2.640267,1.084609 l 0.369015,-0.173134 c 0.988505,-0.463311 1.390421,-1.695099 0.900788,-2.755433 l -4.564484,-9.883917 c -0.319691,-0.692313 -0.958131,-1.112803 -1.634354,-1.156519 z" /></g></svg>
