<?xml version="1.0" encoding="UTF-8" standalone="no"?>
<!-- Created with Inkscape (http://www.inkscape.org/) -->

<svg
   width="110mm"
   height="80.000008mm"
   viewBox="0 0 110 80.000008"
   version="1.1"
   id="svg1"
   xml:space="preserve"
   xmlns:xlink="http://www.w3.org/1999/xlink"
   xmlns="http://www.w3.org/2000/svg"
   xmlns:svg="http://www.w3.org/2000/svg"><defs
     id="defs1"><linearGradient
       id="linearGradient8"><stop
         style="stop-color:#d6a953;stop-opacity:1;"
         offset="0"
         id="stop8" /><stop
         style="stop-color:#c45dab;stop-opacity:1;"
         offset="1"
         id="stop9" /></linearGradient><linearGradient
       xlink:href="#linearGradient8"
       id="linearGradient9"
       x1="7.5975995"
       y1="13.503901"
       x2="92.402496"
       y2="66.49588"
       gradientUnits="userSpaceOnUse" /></defs><g
     id="layer1"><path
       id="rect1"
       style="fill:url(#linearGradient9);stroke:none;stroke-width:0;stroke-dasharray:none;stroke-opacity:1"
       d="M 10.164845,2.3172804 C 7.0716849,2.3504846 4.4969973,4.8518346 4.3879198,7.9342603 L 2.0788853,73.185334 c -0.1168029,3.300736 2.371769,5.983224 5.5841723,6.005343 L 94.465022,79.78835 c 3.346527,0.02304 6.009088,-2.684261 5.965258,-6.060552 L 99.564389,7.0338832 C 99.523516,3.8856877 96.897076,1.3862323 93.679783,1.4207691 Z m 2.232576,2.7543848 41.483417,-0.4189153 c 2.895355,-0.029238 5.211643,2.2454574 5.189911,5.1076828 L 58.60578,70.998817 c -0.02317,3.05197 -2.460698,5.500705 -5.46148,5.482101 L 10.166204,76.214475 C 7.2276511,76.196258 4.9474297,73.748226 5.0498214,70.733751 L 7.1051197,10.224434 c 0.0961,-2.8292334 2.4549016,-5.1241156 5.2923013,-5.1527688 z m 81.79529,-0.826 c 1.337938,-0.013297 2.435182,1.0343612 2.45016,2.341692 0.01511,1.3090703 -1.060368,2.3814773 -2.401543,2.3938085 -1.340564,0.012166 -2.436317,-1.039548 -2.448076,-2.347414 -0.01186,-1.3061276 1.062131,-2.3746369 2.399459,-2.3880865 z m 0.05837,5.6852436 c 1.34183,-0.011619 2.442302,1.0435392 2.457367,2.3584602 0.0152,1.316675 -1.063382,2.393886 -2.408467,2.404526 -1.34447,0.01047 -2.443443,-1.048774 -2.45527,-2.364229 -0.01192,-1.313702 1.065156,-2.3869832 2.40637,-2.3987572 z m 0.05871,5.7182502 c 1.345743,-0.0099 2.449463,1.052807 2.464616,2.375383 0.01501,1.324155 -1.066616,2.405904 -2.415437,2.414832 -1.348202,0.0088 -2.450327,-1.057788 -2.4625,-2.380704 -0.01199,-1.321342 1.068196,-2.399433 2.413321,-2.409511 z m 0.05904,5.751047 c 1.34968,-0.0082 2.456666,1.062165 2.471907,2.392463 0.01538,1.332084 -1.069462,2.419017 -2.422435,2.426214 -1.352351,0.007 -2.457817,-1.067494 -2.469784,-2.398327 -0.01206,-1.329049 1.071255,-2.411986 2.420312,-2.42035 z m 0.05939,5.785127 c 1.35364,-0.0065 2.463912,1.071615 2.479243,2.409704 0.01547,1.33989 -1.072529,2.431742 -2.429482,2.437188 -1.356326,0.0053 -2.465069,-1.076994 -2.477104,-2.415617 -0.01214,-1.336824 1.07433,-2.424647 2.427343,-2.431275 z m 0.05974,5.819009 c 1.357623,-0.0047 2.4712,1.081157 2.486621,2.427105 0.01527,1.34757 -1.075816,2.444071 -2.436573,2.447744 -1.360125,0.0035 -2.472079,-1.086278 -2.484464,-2.432563 -0.01221,-1.344667 1.077424,-2.437414 2.434416,-2.442286 z m 0.06009,5.853187 c 1.361431,-0.0029 2.478247,1.090485 2.494039,2.444163 0.01565,1.35571 -1.078713,2.457517 -2.443695,2.459397 -1.364347,0.0017 -2.4797,-1.096271 -2.491878,-2.450681 -0.01199,-1.352382 1.080739,-2.449784 2.441534,-2.452879 z" /></g></svg>
