<?xml version="1.0" encoding="UTF-8" standalone="no"?>
<!-- Uploaded to: SVG Repo, www.svgrepo.com, Generator: SVG Repo Mixer Tools -->

<svg
   width="800"
   height="800"
   viewBox="0 -7 32 32"
   version="1.1"
   id="svg1"
   xmlns:xlink="http://www.w3.org/1999/xlink"
   xmlns="http://www.w3.org/2000/svg"
   xmlns:svg="http://www.w3.org/2000/svg"
   xmlns:sketch="http://www.bohemiancoding.com/sketch/ns">
  <title
     id="title1">joystick</title>
  <desc
     id="desc1">Created with Sketch Beta.</desc>
  <defs
     id="defs1">
    <linearGradient
       id="linearGradient3">
      <stop
         style="stop-color:#ff4f56;stop-opacity:1;"
         offset="0"
         id="stop3" />
      <stop
         style="stop-color:#f63998;stop-opacity:1;"
         offset="1"
         id="stop4" />
    </linearGradient>
    <linearGradient
       xlink:href="#linearGradient3"
       id="linearGradient4"
       x1="365.30737"
       y1="470.39059"
       x2="382.53152"
       y2="484.69397"
       gradientUnits="userSpaceOnUse" />
  </defs>
  <path
     d="m 386.54584,483.44628 c -0.8754,0.004 -1.57084,-0.79344 -1.56488,-1.77868 0.006,-0.98326 0.70862,-1.80615 1.58094,-1.83907 0.88638,-0.0335 1.61406,0.75889 1.61124,1.77101 -0.003,1.01422 -0.73774,1.84244 -1.6273,1.84674 z m -3.07122,-4.6673 c -0.82316,0.0401 -1.47494,-0.69937 -1.46628,-1.64825 0.009,-0.94704 0.67233,-1.76762 1.49278,-1.83425 0.83325,-0.0677 1.51434,0.66552 1.50845,1.63929 -0.006,0.97573 -0.6989,1.80254 -1.53495,1.84321 z m -1.06285,8.19537 c -0.81416,-0.0231 -1.45792,-0.81858 -1.44825,-1.77437 0.01,-0.95393 0.667,-1.72991 1.47851,-1.73384 0.82415,-0.004 1.49688,0.78752 1.48992,1.76859 -0.007,0.98303 -0.6933,1.76303 -1.52018,1.73962 z m -2.83894,-4.62647 c -0.76729,0.0122 -1.37195,-0.72734 -1.35999,-1.6489 0.0119,-0.91983 0.63414,-1.69488 1.3991,-1.73209 0.77649,-0.0378 1.40759,0.69679 1.39803,1.64182 -0.01,0.94687 -0.65823,1.72684 -1.43714,1.73917 z m -5.73093,0.0907 -2.4353,0.0386 -0.0624,3.13407 c -0.0115,0.5799 -0.37453,1.03914 -0.8084,1.02685 -0.4299,-0.0122 -0.76461,-0.48342 -0.75235,-1.05375 l 0.0662,-3.08252 -2.24176,0.0355 c -0.40151,0.006 -0.71262,-0.43166 -0.69919,-0.97931 0.0134,-0.54604 0.34573,-1.00088 0.74665,-1.01601 l 2.23824,-0.0845 0.0656,-3.05048 c 0.012,-0.55922 0.36361,-1.04036 0.78999,-1.07499 0.43028,-0.0349 0.77179,0.39743 0.76048,0.96586 l -0.0617,3.10096 2.43105,-0.0917 c 0.46179,-0.0174 0.83032,0.4491 0.8205,1.04209 -0.01,0.59479 -0.395,1.08206 -0.85762,1.08939 z m 12.23876,-12.06312 -17.50778,2.17521 c -2.37354,0.2949 -4.27994,3.06265 -4.36611,6.21219 l -0.15748,5.75619 c -0.0878,3.20759 1.7009,5.96017 4.10664,6.13559 l 17.81725,1.29918 c 3.64319,0.26565 6.77464,-2.99215 6.76664,-7.25736 l -0.0143,-7.63128 c -0.008,-4.16311 -3.08024,-7.13259 -6.64484,-6.68972 z"
     id="joystick"
     sketch:type="MSShapeGroup"
     style="fill:url(#linearGradient4)"
     transform="translate(-362,-472)" />
</svg>
