<?xml version="1.0" encoding="UTF-8" standalone="no"?>
<!-- Created with Inkscape (http://www.inkscape.org/) -->

<svg
   width="102.32046mm"
   height="102.12918mm"
   viewBox="0 0 102.32046 102.12918"
   version="1.1"
   id="svg1"
   xmlns:inkscape="http://www.inkscape.org/namespaces/inkscape"
   xmlns:sodipodi="http://sodipodi.sourceforge.net/DTD/sodipodi-0.dtd"
   xmlns="http://www.w3.org/2000/svg"
   xmlns:svg="http://www.w3.org/2000/svg">
  <sodipodi:namedview
     id="namedview1"
     pagecolor="#505050"
     bordercolor="#eeeeee"
     borderopacity="1"
     inkscape:showpageshadow="0"
     inkscape:pageopacity="0"
     inkscape:pagecheckerboard="0"
     inkscape:deskcolor="#505050"
     inkscape:document-units="mm">
    <inkscape:page
       x="0"
       y="0"
       width="102.32046"
       height="102.12918"
       id="page2"
       margin="0"
       bleed="0" />
  </sodipodi:namedview>
  <defs
     id="defs1">
    <inkscape:path-effect
       effect="perspective-envelope"
       up_left_point="11.56443,9.7704698"
       up_right_point="99.468408,1"
       down_left_point="11.56443,91.893911"
       down_right_point="99.468408,99.468408"
       id="path-effect3"
       is_visible="true"
       lpeversion="1"
       deform_type="perspective"
       horizontal_mirror="false"
       vertical_mirror="false"
       overflow_perspective="false" />
  </defs>
  <g
     inkscape:label="Layer 1"
     inkscape:groupmode="layer"
     id="layer1">
    <path
       id="path3"
       style="fill:none;stroke:#e82020;stroke-width:2"
       inkscape:transform-center-y="1.5998034"
       d="m 60.632771,37.640538 c 0.128123,0.08962 5.844444,17.634262 5.794351,17.787719 -0.05008,0.153426 -14.736118,10.734596 -14.88868,10.730693 -0.152467,-0.0039 -13.977351,-10.678547 -14.02178,-10.823362 -0.04442,-0.144788 5.139487,-17.011361 5.258394,-17.105673 0.118967,-0.09436 17.729658,-0.67895 17.857715,-0.589377 z M 51.538422,5.7821328 C 51.816708,5.7543673 60.399232,37.47701 60.632707,37.64032 60.866403,37.803786 96.798748,34.81776 96.901625,35.111349 90.006178,15.433149 71.194357,3.8210127 51.538422,5.7821328 Z m 0,0 C 33.365763,7.5952951 18.369053,20.722693 13.365819,38.079537 c 0.07287,-0.252806 29.192463,0.322117 29.409258,0.150166 0.216994,-0.172108 8.48538,-32.4198368 8.763345,-32.4475702 z M 13.365819,38.079537 c -1.195119,4.145999 -1.801382,8.443859 -1.801389,12.752653 6e-6,13.143992 5.689687,25.783326 15.645396,34.289837 C 27.007066,84.948782 37.597565,55.599669 37.516537,55.335563 37.435538,55.071549 13.292969,38.33226 13.365819,38.079537 Z m 13.844007,47.04249 c 6.814268,5.822354 15.295467,9.437986 24.328596,10.216357 9.385168,0.808694 18.888021,-1.483555 27.062579,-6.700595 C 78.35012,88.797899 51.816708,66.16598 51.538422,66.15886 51.260457,66.151749 27.412767,85.295425 27.209826,85.122027 Z m 51.391175,3.515762 c 12.912851,-8.241037 20.867398,-22.643555 20.867407,-38.403585 -1e-5,-5.16637 -0.868993,-10.277731 -2.566783,-15.122855 0.102918,0.293702 -30.383046,20.037014 -30.474404,20.316882 -0.09132,0.279766 12.424909,33.049288 12.17378,33.209558 z"
       inkscape:path-effect="#path-effect3"
       inkscape:original-d="m 60.315312,36.358803 c 0.139357,0.101249 6.283682,19.01154 6.230453,19.175364 -0.05323,0.163823 -16.139285,11.851026 -16.311539,11.851026 -0.172255,0 -16.258309,-11.687203 -16.311538,-11.851027 -0.05323,-0.163824 6.091097,-19.074115 6.230453,-19.175364 0.139357,-0.101248 20.022814,-0.101248 20.162171,1e-6 z M 50.234204,1 c 0.314124,0 9.826907,35.173928 10.081039,35.358565 0.254131,0.184638 36.646424,-1.637169 36.743493,-1.338419 A 49.234226,49.234226 0 0 0 50.234204,1 Z m 0,0 A 49.234226,49.234226 0 0 0 3.409672,35.020146 c 0.09707,-0.29875 36.489362,1.523057 36.743494,1.338419 C 40.407297,36.173928 49.92008,1 50.234204,1 Z M 3.409672,35.020146 A 49.234226,49.234226 0 0 0 1,50.234204 49.234226,49.234226 0 0 0 21.294885,90.065365 C 21.040754,89.880727 34.019608,55.832889 33.922538,55.534139 33.825469,55.235389 3.3126024,35.318895 3.409672,35.020146 Z m 17.885213,55.045219 a 49.234226,49.234226 0 0 0 28.939319,9.403043 49.234226,49.234226 0 0 0 28.939319,-9.403043 c -0.254132,0.184637 -28.625195,-22.68027 -28.939319,-22.68027 -0.314124,0 -28.685187,22.864907 -28.939319,22.68027 z m 57.878638,0 A 49.234226,49.234226 0 0 0 99.468408,50.234204 49.234226,49.234226 0 0 0 97.058736,35.020146 c 0.09707,0.298749 -30.415796,20.215243 -30.512866,20.513993 -0.09707,0.29875 12.881785,34.346588 12.627653,34.531226 z" />
  </g>
</svg>
