<?xml version="1.0" encoding="UTF-8" standalone="no"?>
<!-- Created with Inkscape (http://www.inkscape.org/) -->

<svg
   width="13.501578mm"
   height="21.958601mm"
   viewBox="0 0 13.501578 21.958601"
   version="1.1"
   id="svg1"
   xml:space="preserve"
   xmlns:xlink="http://www.w3.org/1999/xlink"
   xmlns="http://www.w3.org/2000/svg"
   xmlns:svg="http://www.w3.org/2000/svg"><defs
     id="defs1"><linearGradient
       id="linearGradient1"><stop
         style="stop-color:#3c91c2;stop-opacity:1;"
         offset="0"
         id="stop2" /><stop
         style="stop-color:#f07777;stop-opacity:1;"
         offset="0.81786942"
         id="stop1" /></linearGradient><linearGradient
       xlink:href="#linearGradient1"
       id="linearGradient2"
       x1="0.88653284"
       y1="0.35591942"
       x2="12.700061"
       y2="19.919985"
       gradientUnits="userSpaceOnUse" /></defs><g
     id="layer1"
     transform="translate(-0.10218177,-0.11051096)"><path
       style="fill:url(#linearGradient2);fill-opacity:1"
       d="M 2.1596347,19.134837 C 1.24663,18.778093 0.5505472,18.043282 0.35027078,17.242142 0.26731593,16.91031 0.23665953,16.057021 0.23667623,14.082839 0.23670151,11.093613 0.23861959,11.081518 0.80045994,10.482022 1.2796781,9.9707245 1.8588886,9.7613754 2.8443739,9.7545936 c 0.4937748,-0.00339 1.0676778,0.04643 1.3289843,0.1163041 0.6249012,0.1671473 1.4235335,0.7166333 1.6976067,1.1748513 0.2534366,0.423716 0.4188476,1.390792 0.4223341,2.475421 l 0.0023,0.721198 -1.4155796,-0.145954 -1.356869,-0.139901 7.827e-4,-1.186026 c 5.304e-4,-0.803883 -0.035915,-1.223524 -0.1128939,-1.300999 -0.1732602,-0.174383 -0.5261734,-0.160045 -0.6337856,0.02395 -0.130502,0.22313 -0.1332305,5.837808 -0.00312,6.089976 0.1160139,0.224844 0.3958713,0.286038 0.5978405,0.128843 0.1185616,-0.09228 0.1489132,-0.331041 0.1494721,-1.177961 l 7.012e-4,-1.062623 1.3713215,0.173824 1.4312971,0.181427 -0.069238,0.998829 C 6.1674586,18.096324 5.9857955,18.616481 5.5071346,18.980466 4.942938,19.409494 4.1996344,19.546448 3.2834108,19.401181 2.8720201,19.335953 2.367912,19.216224 2.1596336,19.134834 Z m 6.2858543,-2.895222 0.040716,-3.981885 -0.8975356,-0.06375 -0.8744971,-0.06211 0.00127,-0.983668 0.00127,-0.984052 3.2943306,0.137794 3.633652,0.151986 -0.0029,1.085326 -0.0029,1.084859 -1.004568,-0.07141 -0.977727,-0.0695 -0.0095,4.168974 -0.0095,4.162091 L 9.9842621,20.505871 8.4048763,20.211284 Z M 8.2351977,9.3739017 C 7.5431617,9.1441145 6.8820964,8.594496 6.5799047,8.0059048 6.3810239,7.6185373 6.3601878,7.3797137 6.3267697,5.1105289 6.269427,1.2173802 6.4438089,0.42480532 7.5446024,-0.34525788 8.2487758,-0.83786271 8.7830718,-1.0066825 9.9820018,-1.1057024 c 0.8559072,-0.07069 1.1871642,-0.050204 1.7339782,0.11026415 1.290998,0.37885472 1.731611,1.01610982 1.89573,2.78007845 l 0.08387,0.9014733 -1.755968,0.1103304 -1.674823,0.105232 -0.03087,-1.0508176 C 10.208258,0.9772558 10.168968,0.78541669 10.000855,0.71066396 9.8543126,0.64550263 9.7452267,0.65594954 9.5994451,0.74865429 9.4171269,0.86459398 9.397208,1.1553557 9.3644352,4.1691458 9.326752,7.6343834 9.3567513,7.8766198 9.8196319,7.8226513 10.217836,7.7762243 10.360621,7.3889561 10.364613,6.336275 10.368203,5.3724162 10.367892,5.3711641 10.078322,5.3792477 9.7970986,5.3870984 9.7907638,5.37091 9.7921315,4.6506943 l 0.0014,-0.7367964 1.8827643,-0.091995 1.986331,-0.097056 -0.0077,2.9008806 -0.0077,2.8975533 -1.129039,-0.033061 c -0.606446,-0.017758 -1.095097,-0.074278 -1.094982,-0.1258659 1.15e-4,-0.051589 -0.05439,-0.2160499 -0.121006,-0.3652223 l -0.12082,-0.2705342 -0.256095,0.267919 C 10.596605,9.3403169 9.8474782,9.6042497 9.2714121,9.5844913 9.0241309,9.5760099 8.5573146,9.4808591 8.2351977,9.3739017 Z M 0.19399958,4.716342 V 0.2956247 L 2.1158413,0.1004374 C 4.0923745,-0.10030449 4.179308,-0.10163772 4.6451,0.06852051 5.023913,0.20690541 5.1909817,0.34266082 5.3885599,0.67455102 5.6325936,1.0844752 5.6448439,1.1784871 5.6432747,2.6345496 5.6418267,3.9780858 5.6170311,4.2089038 5.4389168,4.5413723 5.1449407,5.0901145 4.5375124,5.3623539 3.4294981,5.4547218 L 2.5918812,5.5245482 2.591009,7.3626945 2.5901374,9.1995041 1.3688938,9.1637432 0.19399958,9.1293395 Z M 3.2042798,3.7533909 C 3.3601265,3.6369487 3.392541,3.4829116 3.4204138,2.7240655 3.4516011,1.8750099 3.4423211,1.8242557 3.2345773,1.7049599 3.1149461,1.6362623 2.9215774,1.5889439 2.8048573,1.5995404 c -0.2088781,0.018963 -0.2111286,0.03141 -0.2116672,1.1665612 -5.406e-4,1.1392027 8.737e-4,1.1467966 0.2133953,1.135225 0.1182868,-0.00644 0.2972991,-0.072924 0.3976944,-0.1479357 z"
       id="path1"
       transform="translate(-0.09181781,1.2548434)" /></g></svg>
