<?xml version="1.0" encoding="UTF-8" standalone="no"?>
<!-- Created with Inkscape (http://www.inkscape.org/) -->

<svg
   width="129.05717mm"
   height="94.693604mm"
   viewBox="0 0 129.05717 94.693604"
   version="1.1"
   id="svg1"
   xml:space="preserve"
   inkscape:export-filename="bitmap.svg"
   inkscape:export-xdpi="96"
   inkscape:export-ydpi="96"
   xmlns:inkscape="http://www.inkscape.org/namespaces/inkscape"
   xmlns:sodipodi="http://sodipodi.sourceforge.net/DTD/sodipodi-0.dtd"
   xmlns:xlink="http://www.w3.org/1999/xlink"
   xmlns="http://www.w3.org/2000/svg"
   xmlns:svg="http://www.w3.org/2000/svg"><sodipodi:namedview
     id="namedview1"
     pagecolor="#ffffff"
     bordercolor="#000000"
     borderopacity="0.25"
     inkscape:showpageshadow="2"
     inkscape:pageopacity="0.0"
     inkscape:pagecheckerboard="0"
     inkscape:deskcolor="#d1d1d1"
     inkscape:document-units="mm" /><defs
     id="defs1"><linearGradient
       id="linearGradient2"
       inkscape:collect="always"><stop
         style="stop-color:#ca7ab0;stop-opacity:1;"
         offset="0"
         id="stop2" /><stop
         style="stop-color:#6867ac;stop-opacity:1;"
         offset="1"
         id="stop3" /></linearGradient><linearGradient
       id="linearGradient6035"
       inkscape:swatch="solid"><stop
         style="stop-color:#000000;stop-opacity:1;"
         offset="0"
         id="stop6033" /></linearGradient><linearGradient
       id="linearGradient6029"
       inkscape:swatch="solid"><stop
         style="stop-color:#ffffff;stop-opacity:1;"
         offset="0"
         id="stop6027" /></linearGradient><linearGradient
       inkscape:collect="always"
       xlink:href="#linearGradient2"
       id="linearGradient3"
       x1="12.895502"
       y1="31.724066"
       x2="129.52805"
       y2="113.86465"
       gradientUnits="userSpaceOnUse" /><linearGradient
       inkscape:collect="always"
       xlink:href="#linearGradient2"
       id="linearGradient4"
       gradientUnits="userSpaceOnUse"
       x1="12.895502"
       y1="31.724066"
       x2="129.52805"
       y2="113.86465" /><linearGradient
       inkscape:collect="always"
       xlink:href="#linearGradient2"
       id="linearGradient5"
       gradientUnits="userSpaceOnUse"
       x1="12.895502"
       y1="31.724066"
       x2="129.52805"
       y2="113.86465" /></defs><g
     inkscape:label="Layer 1"
     inkscape:groupmode="layer"
     id="layer1"
     transform="translate(-0.23728878,-0.16865323)"><g
       id="layer2"
       inkscape:label="icon"
       transform="translate(-4.3751288,-22.517876)"><g
         id="g2"
         style="fill:url(#linearGradient3)"><path
           style="display:inline;fill:url(#linearGradient4);fill-opacity:1;stroke:none;stroke-width:0.395552;stroke-miterlimit:4;stroke-dasharray:none"
           d="m 103.88251,33.801183 c -0.21504,0.0053 -0.43146,0.01393 -0.64908,0.02421 -0.63058,0.03021 -1.2435,0.08915 -1.84836,0.161189 -0.15928,0.01898 -0.3169,0.04022 -0.47442,0.06198 -0.30929,0.04274 -0.60944,0.100512 -0.912044,0.15377 -0.642227,0.11302 -1.269765,0.248186 -1.882475,0.406316 -0.180448,0.04659 -0.364943,0.08628 -0.542875,0.13661 -0.75868,0.214494 -1.495938,0.459854 -2.209903,0.738468 -0.141337,0.05518 -0.276168,0.118981 -0.415797,0.17652 -0.585142,0.241064 -1.154962,0.502343 -1.71053,0.78282 -0.185259,0.09355 -0.369602,0.187388 -0.551636,0.285063 -0.604832,0.324445 -1.195217,0.666227 -1.765194,1.033092 -0.0534,0.03437 -0.110064,0.06458 -0.163174,0.09932 -0.625725,0.40914 -1.225842,0.847414 -1.81065,1.301627 -0.140592,0.109213 -0.276908,0.222141 -0.415187,0.333731 -0.471157,0.380142 -0.929174,0.772647 -1.373994,1.178099 -0.112802,0.102831 -0.228091,0.202664 -0.339226,0.306975 -0.539746,0.506544 -1.063066,1.027599 -1.564462,1.565232 -0.01023,0.01097 -0.02165,0.0209 -0.03187,0.03187 l 0.0032,-4.9e-5 c -1.931826,2.076575 -3.587605,4.358122 -4.997896,6.657401 -0.42227,0.688447 -0.795726,1.370799 -1.171608,2.052514 l 2.5e-5,-0.0285 c -0.05876,0.106388 -0.105701,0.208012 -0.163349,0.314081 -0.285872,0.525928 -0.546277,1.035834 -0.80539,1.55086 -0.173391,0.344451 -0.34673,0.685018 -0.508466,1.022669 -0.251148,0.524598 -0.482468,1.02692 -0.706073,1.530267 -0.136642,0.307163 -0.268028,0.605874 -0.394679,0.903395 -0.213,0.50099 -0.411176,0.976402 -0.596484,1.444918 -0.103885,0.262076 -0.199175,0.508102 -0.29464,0.75851 -0.172456,0.453316 -0.334858,0.883008 -0.480321,1.292819 -0.05674,0.159333 -0.0968,0.277991 -0.149578,0.430102 -0.388454,1.12196 -0.655273,1.964409 -0.839435,2.604847 -0.207959,0.713452 -0.312454,1.131342 -0.312454,1.131342 l -0.01023,0.04281 -0.280256,1.169764 -1.238922,0.07904 c -6.152848,0.393532 -10.947499,1.273957 -14.693481,2.347696 l 4e-5,-0.0031 c -0.07642,0.02187 -0.133743,0.04694 -0.209254,0.06898 -1.009937,0.294817 -1.932263,0.60311 -2.7923,0.920653 -0.08557,0.03161 -0.193678,0.05991 -0.277871,0.09168 l -2.39e-4,0.01621 c -1.981229,0.749698 -3.609896,1.538324 -4.875193,2.299462 -1.443143,0.868114 -2.365105,1.646544 -3.080477,2.328623 1.036424,0.263397 3.477675,0.829847 7.862098,1.725711 l -1.15e-4,0.0078 c 0.231871,0.04723 0.534234,0.106151 0.779681,0.155599 0.54354,0.109732 1.075788,0.215258 1.686399,0.336205 0.282087,0.05579 0.506281,0.10206 0.802652,0.160291 l 9.1e-5,-0.007 c 4.115541,0.81 10.270232,1.946536 17.979041,3.327256 -0.0019,0.0071 -0.0032,0.01484 -0.0055,0.02213 1.221478,0.21818 2.71941,0.478185 4.047015,0.712667 -0.0024,-0.0045 -0.0033,-0.0099 -0.0055,-0.01438 2.186063,0.386732 3.687414,0.668684 6.180773,1.102252 2.114251,0.367646 4.047644,1.047243 5.818113,1.95878 0.187312,0.09638 0.36783,0.201892 0.551384,0.303547 0.361614,0.200406 0.717304,0.409292 1.064396,0.629307 0.186726,0.118262 0.373427,0.236606 0.555984,0.360275 0.403101,0.273317 0.795996,0.559484 1.178866,0.857745 0.09076,0.07065 0.187071,0.13505 0.276714,0.207024 0.463766,0.372726 0.908956,0.766296 1.342671,1.172508 0.132771,0.124257 0.260507,0.253563 0.390478,0.38073 0.32118,0.314492 0.634303,0.637035 0.93852,0.968197 0.123248,0.134105 0.24788,0.266907 0.368361,0.40356 0.400125,0.454069 0.790645,0.917562 1.160466,1.397246 0.397303,0.515319 0.77588,1.045913 1.14159,1.586613 0.19245,0.285279 0.37136,0.579947 0.55546,0.871424 2.40039,3.793514 4.10453,8.084804 5.32746,12.287154 0.15913,0.54682 0.28499,1.07708 0.42757,1.61689 0.17701,0.66974 0.35871,1.34257 0.51232,1.9983 0.0834,0.3572 0.1501,0.70011 0.22705,1.05225 0.14653,0.6688 0.29684,1.34218 0.42156,1.98968 0.0671,0.3493 0.11864,0.67761 0.1798,1.01975 0.11262,0.62751 0.23048,1.26273 0.32496,1.8631 5e-4,0.004 10e-4,0.009 0.002,0.0128 0.143,0.91304 0.26844,1.79809 0.37613,2.63661 l 18.58421,0.66874 c 0.44509,0.016 0.87821,-0.0128 1.29563,-0.0826 2.50865,-0.41996 4.4362,-2.31587 4.8791,-4.80038 0.0737,-0.4136 0.10596,-0.84311 0.0931,-1.28484 l -1.81569,-62.532623 c -0.88715,-1.029959 -1.81373,-2.041586 -2.77917,-3.021957 -6.69399,-6.79755 -15.22872,-12.099608 -25.18932,-11.852253 z"
           id="path4497"
           inkscape:label="duck" /><path
           id="path4509"
           style="display:inline;fill:url(#linearGradient5);fill-opacity:1;stroke:none;stroke-width:0.395622"
           d="m 13.17671,25.823988 c -2.873531,0.08057 -5.2764251,2.514014 -5.3994118,5.465941 L 4.6180055,107.11928 c -0.1343537,3.22476 2.1701032,5.91634 5.1798611,6.02465 l 95.3834834,3.43235 c -0.43157,-3.27281 -1.12246,-7.18218 -2.2766,-11.18545 -0.25126,-0.87151 -0.53229,-1.74244 -0.82723,-2.60984 -0.21811,-0.40475 -0.3778,-0.84052 -0.4594,-1.306 -0.99078,-2.682002 -2.202191,-5.278706 -3.674032,-7.593608 l 0.06526,6.810968 c 0.02229,2.32664 -1.821224,4.15247 -4.126934,4.08765 L 83.0908,104.47664 c -2.264238,-0.0637 -4.080232,-1.96773 -4.078229,-4.26325 l 0.0094,-10.763282 c 0.002,-2.262699 1.802208,-4.053418 4.04276,-4.020158 l 5.46663,0.08115 c -1.061953,-0.424829 -2.192498,-0.750189 -3.399665,-0.963431 -5.095374,-0.900072 -9.453347,-1.690111 -13.413013,-2.419562 -0.02427,9.8e-5 -0.04681,0.0067 -0.07119,0.0064 L 61.311062,82.003717 C 59.661538,81.982851 58.276705,80.933762 57.718464,79.463763 56.380231,79.198628 55.197387,78.959917 54.079768,78.731639 53.694519,80.544794 52.11582,81.8874 50.239974,81.86367 L 40.210853,81.736804 c -2.105217,-0.02663 -3.752288,-1.801184 -3.698898,-3.974205 l 0.250433,-10.192774 c 0.05266,-2.143226 1.768713,-3.865347 3.853456,-3.865967 l 9.93072,-0.003 c 1.40648,-4.18e-4 2.608223,0.774018 3.258257,1.923362 4.15873,-1.494531 9.703505,-2.757574 17.068012,-3.336588 0.113089,-0.395662 0.274972,-0.922277 0.459855,-1.501974 l -9.794347,0.02292 c -2.144254,0.005 -3.8433,-1.729288 -3.81551,-3.883889 l 0.13034,-10.105358 c 0.02741,-2.12497 1.75388,-3.857452 3.876885,-3.889256 l 10.113248,-0.151504 c 2.159981,-0.03236 3.898829,1.669823 3.892897,3.821434 l -0.0105,3.808041 c 0.505684,-0.944158 1.048803,-1.903456 1.642522,-2.870596 4.908212,-7.995262 13.089449,-16.390465 25.726317,-17.023412 l 8.2e-4,-1.9e-5 c 0.24385,-0.01214 0.48624,-0.021 0.72877,-0.02749 11.64252,-0.315546 20.90705,5.894736 27.89602,13.685715 l -0.46056,-15.862162 c -0.0933,-3.213891 -2.89931,-5.715664 -6.27735,-5.62095 z m 7.837986,17.716017 9.538115,-0.142888 c 2.036483,-0.03051 3.636054,1.623482 3.581003,3.713104 l -0.261768,9.936092 c -0.0558,2.118264 -1.760424,3.831103 -3.816432,3.835914 l -9.628755,0.02253 c -2.02148,0.0047 -3.583908,-1.679543 -3.508784,-3.771975 l 0.35241,-9.815745 c 0.07412,-2.064483 1.741594,-3.747035 3.744211,-3.777036 z m 20.06074,-0.300525 9.818996,-0.147096 c 2.096867,-0.03141 3.764392,1.646327 3.733169,3.766491 l -0.148483,10.082334 c -0.03166,2.149657 -1.766581,3.887997 -3.884169,3.892952 l -9.915183,0.0232 c -2.08151,0.0049 -3.710593,-1.704053 -3.65843,-3.827114 l 0.244675,-9.958445 c 0.05146,-2.09429 1.747931,-3.801443 3.809425,-3.832326 z m -20.743534,20.470335 9.64339,-0.0029 c 2.05916,-6.12e-4 3.676055,1.716599 3.619721,3.854937 l -0.267912,10.169307 c -0.05712,2.167995 -1.781504,3.895877 -3.860627,3.869576 L 19.730422,81.47761 C 17.686616,81.45176 16.10772,79.703757 16.184585,77.562811 l 0.36058,-10.043286 c 0.07583,-2.112017 1.762211,-3.809108 3.786737,-3.80971 z m -0.703398,20.77845 9.751746,0.144761 c 2.082505,0.03091 3.717224,1.81432 3.659551,4.003446 l -0.274276,10.410889 c -0.05848,2.219859 -1.803262,3.963909 -3.906187,3.904789 l -9.846508,-0.27679 c -2.066784,-0.0581 -3.662582,-1.87359 -3.583901,-4.065106 l 0.369037,-10.27887 c 0.07761,-2.161553 1.783467,-3.873507 3.830538,-3.843119 z m 20.51371,0.304518 10.045793,0.149126 c 2.145732,0.03185 3.851603,1.842901 3.818869,4.065567 l -0.155687,10.571517 c -0.0332,2.254347 -1.809732,4.024827 -3.977169,3.963897 l -10.146498,-0.28522 c -2.129633,-0.0599 -3.795198,-1.90396 -3.740527,-4.129086 L 36.24339,88.693158 c 0.05391,-2.194249 1.790139,-3.931677 3.898824,-3.900375 z m 21.13557,0.313749 10.354138,0.153703 c 2.21189,0.03284 3.992525,1.872395 3.986302,4.129646 l -0.0296,10.737179 c -0.0063,2.28992 -1.815729,4.08765 -4.050699,4.02482 L 61.07671,103.85781 c -2.195393,-0.0617 -3.934272,-1.93532 -3.905125,-4.1951 l 0.136679,-10.596817 c 0.02874,-2.227949 1.796397,-3.99162 3.96952,-3.959361 z"
           inkscape:label="deck" /></g></g></g></svg>
