<?xml version="1.0" encoding="UTF-8" standalone="no"?>
<!-- Created with Inkscape (http://www.inkscape.org/) -->

<svg
   width="44.893326mm"
   height="42.480892mm"
   viewBox="0 0 44.893326 42.480892"
   version="1.1"
   id="svg1"
   xml:space="preserve"
   inkscape:export-filename="trickster-lisp.svg"
   inkscape:export-xdpi="96"
   inkscape:export-ydpi="96"
   xmlns:inkscape="http://www.inkscape.org/namespaces/inkscape"
   xmlns:sodipodi="http://sodipodi.sourceforge.net/DTD/sodipodi-0.dtd"
   xmlns="http://www.w3.org/2000/svg"
   xmlns:svg="http://www.w3.org/2000/svg"><sodipodi:namedview
     id="namedview1"
     pagecolor="#ffffff"
     bordercolor="#000000"
     borderopacity="0.25"
     inkscape:showpageshadow="2"
     inkscape:pageopacity="0.0"
     inkscape:pagecheckerboard="0"
     inkscape:deskcolor="#d1d1d1"
     inkscape:document-units="mm" /><defs
     id="defs1"><inkscape:path-effect
       effect="perspective-envelope"
       up_left_point="1.6472884,5.8117456"
       up_right_point="45.46061,3.3103077"
       down_left_point="1.0981923,43.142203"
       down_right_point="46.070716,46.37577"
       id="path-effect16399"
       is_visible="true"
       lpeversion="1"
       deform_type="perspective"
       horizontal_mirror="false"
       vertical_mirror="false"
       overflow_perspective="false" /></defs><g
     inkscape:label="Layer 1"
     inkscape:groupmode="layer"
     id="layer1"><g
       id="g16391"
       inkscape:path-effect="#path-effect16399"
       transform="translate(-1.1356373,-3.663597)"><path
         style="fill:#efedcc"
         d="m 8.8391236,17.945167 0.025,-2.526798 5.1185955,-0.119525 5.298171,-0.123719 -0.004,1.306473 -0.004,1.308708 2.724029,-0.04043 2.77275,-0.04115 -6.84e-4,-1.332024 -6.83e-4,-1.329708 5.686875,-0.132795 5.897469,-0.137712 0.02235,2.759989 0.02243,2.769982 -14.403944,0.0908 -13.1793942,0.08308 z"
         id="path16398"
         inkscape:original-d="m 8.4666667,16.933333 v -2.822222 h 5.6444443 5.644445 v 1.411111 1.411111 H 22.577778 25.4 v -1.411111 -1.411111 h 5.644445 5.644444 v 2.822222 2.822223 H 22.577778 8.4666667 Z" /><path
         style="fill:#e2d6af"
         d="m 8.8014682,21.751072 0.012573,-1.270736 13.1793942,-0.08308 14.403944,-0.0908 0.01125,1.388755 0.01127,1.391273 -14.429904,-0.03267 -13.2011122,-0.02989 z M 8.9014691,11.643774 8.9138766,10.389717 22.007108,9.8623154 36.308139,9.2862636 l 0.01109,1.3688514 0.0111,1.371316 -14.32662,0.456022 -13.1146669,0.417446 z"
         id="path16397"
         inkscape:original-d="M 8.4666667,21.166667 V 19.755556 H 22.577778 36.688889 v 1.411111 1.411111 H 22.577778 8.4666667 Z m 0,-11.2888892 V 8.4666667 H 22.577778 36.688889 V 9.8777778 11.288889 H 22.577778 8.4666667 Z" /><path
         style="fill:#b1b1b1"
         d="m 8.6745868,34.575255 0.012783,-1.292056 1.277387,0.04706 1.2884317,0.04746 0.01071,-1.301124 0.01069,-1.298935 -1.286367,-0.03621 -1.2753577,-0.0359 0.01272,-1.285605 0.012699,-1.283464 1.2733345,0.02482 1.284308,0.02503 -0.01066,1.294575 -0.01068,1.296754 1.297518,0.03652 1.308817,0.03684 0.0086,-1.308097 0.0085,-1.305882 1.318091,0.02569 1.32965,0.02592 -0.0064,1.317386 -0.0064,1.319641 1.343611,0.03782 1.355516,0.03816 0.0041,-1.331391 0.0041,-1.329095 1.36525,0.02661 1.377436,0.02685 -0.0017,1.341014 -0.0017,1.343352 1.3922,0.03919 1.404761,0.03954 -6.97e-4,-1.355529 -6.95e-4,-1.35315 1.414986,0.02758 1.427845,0.02783 0.0032,1.365506 0.0032,1.367929 1.443476,0.04063 1.456739,0.04101 -0.0058,-1.380559 -0.0058,-1.37809 1.46749,0.0286 1.481073,0.02887 0.0086,1.390909 0.0086,1.393423 1.497637,0.04216 1.511654,0.04255 0.01141,1.409096 0.01143,1.411669 -1.514509,-0.05579 -1.50044,-0.05527 0.0086,1.401001 0.0086,1.403541 -1.489329,-0.06785 -1.475598,-0.06723 -0.0059,-1.39049 -0.0059,-1.387997 -1.459393,-0.05376 -1.446082,-0.05327 0.0032,1.375232 0.0032,1.377681 -1.435523,-0.0654 -1.422526,-0.06481 -7.02e-4,-1.365104 -7e-4,-1.3627 -1.407228,-0.05184 -1.394625,-0.05138 -0.0018,1.350395 -0.0018,1.352755 -1.384579,-0.06308 -1.372268,-0.06252 0.0041,-1.340628 0.0041,-1.338309 -1.357813,-0.05002 -1.345868,-0.04958 -0.0064,1.326439 -0.0064,1.328716 -1.3363,-0.06088 -1.324626,-0.06035 0.0086,-1.317014 0.0086,-1.314777 -1.310957,-0.04829 -1.299621,-0.04787 -0.01073,1.303317 -0.01075,1.305516 -1.2905043,-0.05879 -1.2794228,-0.05829 z m 7.8520872,-2.327673 0.0064,-1.321901 -1.331859,-0.03749 -1.320262,-0.03716 -0.0086,1.310317 -0.0086,1.312544 1.32244,0.04872 1.334076,0.04914 z m 5.45115,0.177106 0.0017,-1.345692 -1.379809,-0.03884 -1.367581,-0.0385 -0.0041,1.333691 -0.0041,1.335997 1.369921,0.05047 1.38219,0.05092 z m 5.649825,0.183562 -0.0032,-1.370357 -1.430395,-0.04026 -1.41749,-0.0399 6.97e-4,1.357912 6.99e-4,1.360304 1.420004,0.05231 1.432954,0.05279 z m 5.859564,0.190376 -0.0086,-1.395942 -1.483815,-0.04177 -1.470182,-0.04138 0.0059,1.38303 0.0059,1.385511 1.472885,0.05426 1.486567,0.05476 z"
         id="path16396"
         inkscape:original-d="M 8.4666667,35.277778 V 33.866667 H 9.8777778 11.288889 V 32.455556 31.044445 H 9.8777778 8.4666667 v -1.411112 -1.411111 h 1.4111111 1.4111112 v 1.411111 1.411112 H 12.7 14.111111 v -1.411112 -1.411111 h 1.411111 1.411111 v 1.411111 1.411112 h 1.411112 1.411111 v -1.411112 -1.411111 h 1.411111 1.411111 v 1.411111 1.411112 H 23.988889 25.4 v -1.411112 -1.411111 h 1.411111 1.411111 v 1.411111 1.411112 h 1.411111 1.411112 v -1.411112 -1.411111 h 1.411111 1.411111 v 1.411111 1.411112 h 1.411111 1.411111 v 1.411111 1.411111 h -1.411111 -1.411111 v 1.411111 1.411111 h -1.411111 -1.411111 v -1.411111 -1.411111 h -1.411112 -1.411111 v 1.411111 1.411111 H 26.811111 25.4 v -1.411111 -1.411111 h -1.411111 -1.411111 v 1.411111 1.411111 h -1.411111 -1.411111 v -1.411111 -1.411111 h -1.411111 -1.411112 v 1.411111 1.411111 H 15.522222 14.111111 V 35.277778 33.866667 H 12.7 11.288889 v 1.411111 1.411111 H 9.8777778 8.4666667 Z m 8.4666663,-2.822222 v -1.411111 h -1.411111 -1.411111 v 1.411111 1.411111 h 1.411111 1.411111 z m 5.644445,0 v -1.411111 h -1.411111 -1.411111 v 1.411111 1.411111 h 1.411111 1.411111 z m 5.644444,0 V 31.044445 H 26.811111 25.4 v 1.411111 1.411111 h 1.411111 1.411111 z m 5.644445,0 v -1.411111 h -1.411111 -1.411111 v 1.411111 1.411111 h 1.411111 1.411111 z" /><path
         style="fill:#88bdb8"
         d="m 1.2841997,30.496439 0.11016,-7.489266 1.2067292,0.0027 1.216833,0.0028 0.032841,-2.501037 0.032734,-2.492904 1.2233322,-0.01816 1.2336279,-0.01831 -0.028975,2.513859 -0.02907,2.522129 15.7075752,0.03557 17.478579,0.03958 -0.02829,-2.806113 -0.02819,-2.795878 1.539992,-0.02286 1.554544,-0.02307 0.03416,2.822263 0.03429,2.832692 1.575459,0.0036 1.590544,0.0036 0.122455,8.643722 0.123841,8.741566 -3.20386,-0.173994 -3.142985,-0.170688 -0.07211,-7.15199 -0.07145,-7.086414 L 21.986527,25.719583 6.2532458,25.548682 6.1799085,31.911418 6.105962,38.327008 3.6186048,38.191925 1.1729599,38.059108 Z"
         id="path16395"
         inkscape:original-d="m 0,31.044445 v -8.466667 h 1.4111111 1.4111111 v -2.822222 -2.822223 h 1.4111111 1.4111112 v 2.822223 2.822222 H 22.577778 39.511111 v -2.822222 -2.822223 h 1.411111 1.411111 v 2.822223 2.822222 h 1.411112 1.411111 v 8.466667 8.466666 H 42.333333 39.511111 V 32.455556 25.4 H 22.577778 5.6444445 v 7.055556 7.055555 H 2.8222222 0 Z" /><path
         style="fill:#c3ac7d"
         d="m 6.3259814,19.238152 0.043356,-3.761527 1.2421307,-0.02901 1.2526558,-0.02925 -0.037531,3.793334 -0.037718,3.812214 -1.2585449,-0.0029 -1.2479181,-0.0028 z m 30.0601716,-0.317942 -0.03355,-4.143728 1.508649,-0.03523 1.522747,-0.03556 0.04217,4.182362 0.0424,4.205327 -1.531465,-0.0035 -1.51721,-0.0034 z M 6.4411251,9.2482955 6.4839178,5.5356075 22.013875,4.6489543 39.272658,3.663597 l 0.04156,4.1220268 0.04179,4.1444982 -1.519863,0.04838 -1.505818,0.04793 -0.02219,-2.7401674 -0.02211,-2.7303356 -14.275532,0.6952365 -13.0718664,0.6366166 -0.024754,2.5019359 -0.024836,2.510182 -1.250705,0.03981 -1.2402135,0.03948 z"
         id="path16394"
         inkscape:original-d="m 5.6444445,18.344445 v -4.233334 h 1.4111111 1.4111111 v 4.233334 4.233333 H 7.0555556 5.6444445 Z m 31.0444445,0 V 14.111111 H 38.1 39.511111 v 4.233334 4.233333 H 38.1 36.688889 Z M 5.6444445,7.0555556 V 2.8222222 H 22.577778 39.511111 V 7.0555556 11.288889 H 38.1 36.688889 V 8.4666667 5.6444445 H 22.577778 8.4666667 V 8.4666667 11.288889 H 7.0555556 5.6444445 Z" /><path
         style="fill:#9a916c"
         d="M 8.9262638,9.1377205 8.9386306,7.8877811 22.010497,7.2511645 36.286029,6.555928 36.297074,7.9198702 36.308139,9.2862636 22.007108,9.8623154 8.9138766,10.389717 Z"
         id="path16393"
         inkscape:original-d="M 8.4666667,7.0555556 V 5.6444445 H 22.577778 36.688889 V 7.0555556 8.4666667 H 22.577778 8.4666667 Z" /><path
         style="fill:#545454"
         d="m 1.1543138,39.326765 0.018646,-1.267657 20.7960851,1.129387 24.018328,1.30438 0.02078,1.466558 0.02082,1.469329 L 21.965512,41.910628 1.1356373,40.596497 Z m 5.2294278,-25.099881 0.014381,-1.247698 15.6055854,-0.496733 17.352301,-0.552331 0.01398,1.386525 0.01401,1.389048 -17.383699,0.405929 -15.630958,0.365001 z"
         id="path16392"
         inkscape:original-d="m 0,40.922222 v -1.411111 h 22.577778 22.577778 v 1.411111 1.411111 H 22.577778 0 Z M 5.6444445,12.7 V 11.288889 H 22.577778 39.511111 V 12.7 14.111111 H 22.577778 5.6444445 Z" /><path
         style="fill:#151515"
         d="m 3.5681583,42.033744 0.016843,-1.28272 18.3805105,1.159604 20.853196,1.315603 0.01765,1.457762 0.01768,1.460495 -20.892069,-1.50216 -18.4106798,-1.323745 z m 2.6117502,-10.122326 0.073337,-6.362736 15.7332812,0.170901 17.510437,0.190206 0.07145,7.086414 0.07211,7.15199 L 21.969045,39.188495 6.105962,38.327008 Z m 5.0625495,2.769618 0.01073,-1.303317 1.299621,0.04787 1.310957,0.04829 -0.0086,1.314777 -0.0086,1.317014 1.324626,0.06035 1.3363,0.06088 0.0064,-1.328716 0.0064,-1.326439 1.345868,0.04958 1.357813,0.05002 -0.0041,1.338309 -0.0041,1.340628 1.372268,0.06252 1.384579,0.06308 0.0018,-1.352755 0.0018,-1.350395 1.394625,0.05138 1.407228,0.05184 7e-4,1.3627 7.02e-4,1.365104 1.422526,0.06481 1.435523,0.0654 -0.0032,-1.377681 -0.0032,-1.375232 1.446082,0.05327 1.459393,0.05376 0.0059,1.387997 0.0059,1.39049 1.475598,0.06723 1.489329,0.06785 -0.0086,-1.403541 -0.0086,-1.401001 1.50044,0.05527 1.514509,0.05579 -0.01143,-1.411669 -0.01141,-1.409096 -1.511654,-0.04255 -1.497637,-0.04216 -0.0086,-1.393423 -0.0086,-1.390909 -1.481073,-0.02887 -1.46749,-0.0286 0.0058,1.37809 0.0058,1.380559 -1.456739,-0.04101 -1.443476,-0.04063 -0.0032,-1.367929 -0.0032,-1.365506 -1.427845,-0.02783 -1.414986,-0.02758 6.95e-4,1.35315 6.97e-4,1.355529 -1.404761,-0.03954 -1.3922,-0.03919 0.0017,-1.343352 0.0017,-1.341014 -1.377436,-0.02685 -1.36525,-0.02661 -0.0041,1.329095 -0.0041,1.331391 -1.355516,-0.03816 -1.343611,-0.03782 0.0064,-1.319641 0.0064,-1.317386 -1.32965,-0.02592 -1.318091,-0.02569 -0.0085,1.305882 -0.0086,1.308097 -1.308817,-0.03684 -1.297518,-0.03652 0.01068,-1.296754 0.01066,-1.294575 -1.284308,-0.02503 -1.2733345,-0.02482 -0.012699,1.283464 -0.01272,1.285605 1.2753577,0.0359 1.286367,0.03621 -0.01069,1.298935 -0.01071,1.301124 -1.2884317,-0.04746 -1.277387,-0.04706 -0.012783,1.292056 -0.012805,1.294218 1.2794228,0.05829 1.2905043,0.05879 z m 2.629899,-2.519693 0.0086,-1.310317 1.320262,0.03716 1.331859,0.03749 -0.0064,1.321901 -0.0064,1.324166 -1.334076,-0.04914 -1.32244,-0.04872 z m 5.355719,0.174007 0.0041,-1.333691 1.367581,0.0385 1.379809,0.03884 -0.0017,1.345692 -0.0017,1.348041 -1.38219,-0.05092 -1.369921,-0.05047 z m 5.549153,0.18029 -6.97e-4,-1.357912 1.41749,0.0399 1.430395,0.04026 0.0032,1.370357 0.0032,1.372791 -1.432954,-0.05279 -1.420004,-0.05231 z m 5.753262,0.186922 -0.0059,-1.38303 1.470182,0.04138 1.483815,0.04177 0.0086,1.395942 0.0086,1.398467 -1.486567,-0.05476 -1.472885,-0.05426 z m -11.253622,-16.220964 0.004,-1.306473 2.719405,-0.0635 2.767959,-0.06464 6.83e-4,1.329708 6.84e-4,1.332024 -2.77275,0.04115 -2.724029,0.04043 z"
         id="path16391"
         inkscape:original-d="M 2.8222222,43.744445 V 42.333333 H 22.577778 42.333333 v 1.411112 1.411111 H 22.577778 2.8222222 Z M 5.6444445,32.455556 V 25.4 H 22.577778 39.511111 v 7.055556 7.055555 H 22.577778 5.6444445 Z m 5.6444445,2.822222 V 33.866667 H 12.7 14.111111 v 1.411111 1.411111 h 1.411111 1.411111 v -1.411111 -1.411111 h 1.411112 1.411111 v 1.411111 1.411111 h 1.411111 1.411111 V 35.277778 33.866667 H 23.988889 25.4 v 1.411111 1.411111 h 1.411111 1.411111 v -1.411111 -1.411111 h 1.411111 1.411112 v 1.411111 1.411111 h 1.411111 1.411111 v -1.411111 -1.411111 h 1.411111 1.411111 v -1.411111 -1.411111 h -1.411111 -1.411111 v -1.411112 -1.411111 h -1.411111 -1.411111 v 1.411111 1.411112 H 29.633333 28.222222 V 29.633333 28.222222 H 26.811111 25.4 v 1.411111 1.411112 h -1.411111 -1.411111 v -1.411112 -1.411111 h -1.411111 -1.411111 v 1.411111 1.411112 h -1.411111 -1.411112 v -1.411112 -1.411111 h -1.411111 -1.411111 v 1.411111 1.411112 H 12.7 11.288889 V 29.633333 28.222222 H 9.8777778 8.4666667 v 1.411111 1.411112 h 1.4111111 1.4111112 v 1.411111 1.411111 H 9.8777778 8.4666667 v 1.411111 1.411111 h 1.4111111 1.4111112 z m 2.822222,-2.822222 v -1.411111 h 1.411111 1.411111 v 1.411111 1.411111 h -1.411111 -1.411111 z m 5.644445,0 v -1.411111 h 1.411111 1.411111 v 1.411111 1.411111 h -1.411111 -1.411111 z m 5.644444,0 v -1.411111 h 1.411111 1.411111 v 1.411111 1.411111 H 26.811111 25.4 Z m 5.644445,0 v -1.411111 h 1.411111 1.411111 v 1.411111 1.411111 H 32.455556 31.044445 Z M 19.755556,15.522222 V 14.111111 H 22.577778 25.4 v 1.411111 1.411111 h -2.822222 -2.822222 z" /></g></g></svg>
