<?xml version="1.0" encoding="UTF-8" standalone="no"?>
<!-- Created with Inkscape (http://www.inkscape.org/) -->

<svg
   width="12.465326mm"
   height="11.139774mm"
   viewBox="0 0 12.465326 11.139774"
   version="1.1"
   id="svg1"
   xml:space="preserve"
   xmlns="http://www.w3.org/2000/svg"
   xmlns:svg="http://www.w3.org/2000/svg"><defs
     id="defs1"><clipPath
       id="clip0_1_6"><rect
         width="48"
         height="48"
         fill="#ffffff"
         id="rect2"
         d="M -1.058373e-8,5.2348972 48,0 V 48 L -1.058373e-8,44.728189 Z"
         x="0"
         y="0" /></clipPath></defs><g
     id="layer1"
     transform="translate(0.04871327,-0.56431379)"><g
       style="fill:none"
       id="g146"
       transform="matrix(0.26458333,0,0,0.26458333,-0.28338614,0)"><g
         clip-path="url(#clip0_1_6)"
         id="g2"><path
           d="m 9.433682,32.507103 4.557254,-4.313924 3.77661,3.532057 -4.702311,4.312343 z"
           fill="#99a9b3"
           id="path1" /><path
           fill="#8899a6"
           id="circle1"
           d="M 48,18.5 C 48,28.717268 38.293954,36.732607 27.238715,36.428045 17.081499,36.148223 9.433682,28.8342 9.433682,20.071794 9.433682,11.309389 17.081499,3.3719828 27.238715,2.2642332 38.293954,1.0585449 48,8.2827321 48,18.5 Z" /><path
           fill="#bbddf5"
           id="circle2"
           d="m 42.056376,18.253208 c 0,7.022146 -6.598348,12.679113 -14.298481,12.637561 -7.254334,-0.03915 -12.833964,-5.178768 -12.833964,-11.481672 0,-6.302904 5.57963,-11.91793 12.833964,-12.57517 7.700133,-0.6976291 14.298481,4.397136 14.298481,11.419281 z" /><path
           d="m 7.7350591,30.709677 c 0.6900664,-0.663378 1.8177532,-0.660902 2.5187229,0.01279 l 4.750542,4.5657 c 0.734294,0.705723 0.734294,1.821277 0,2.48383 L 9.0192006,43.172379 C 7.2929285,44.730003 4.5480201,44.54881 2.8874199,42.811822 l -0.78153,-0.817538 c -1.62525059,-1.700011 -1.62524894,-4.310376 0,-5.872834 z"
           fill="#66757e"
           id="path2" /></g></g></g></svg>
