<?xml version="1.0" encoding="UTF-8" standalone="no"?>
<!-- Created with Inkscape (http://www.inkscape.org/) -->

<svg
   width="100.56712mm"
   height="103.62776mm"
   viewBox="0 0 100.56712 103.62776"
   version="1.1"
   id="svg1"
   xml:space="preserve"
   xmlns:inkscape="http://www.inkscape.org/namespaces/inkscape"
   xmlns:sodipodi="http://sodipodi.sourceforge.net/DTD/sodipodi-0.dtd"
   xmlns:xlink="http://www.w3.org/1999/xlink"
   xmlns="http://www.w3.org/2000/svg"
   xmlns:svg="http://www.w3.org/2000/svg"><sodipodi:namedview
     id="namedview1"
     pagecolor="#ffffff"
     bordercolor="#000000"
     borderopacity="0.25"
     inkscape:showpageshadow="2"
     inkscape:pageopacity="0.0"
     inkscape:pagecheckerboard="0"
     inkscape:deskcolor="#d1d1d1"
     inkscape:document-units="mm" /><defs
     id="defs1"><inkscape:path-effect
       effect="perspective-envelope"
       up_left_point="5.6129827,6.8331964"
       up_right_point="93.98314,5.0000005e-09"
       down_left_point="-2.5e-09,93.978926"
       down_right_point="101.30442,105.93702"
       id="path-effect14"
       is_visible="true"
       lpeversion="1"
       deform_type="perspective"
       horizontal_mirror="false"
       vertical_mirror="false"
       overflow_perspective="false" /><linearGradient
       id="linearGradient13"
       inkscape:collect="always"><stop
         style="stop-color:#ffa500;stop-opacity:1;"
         offset="0"
         id="stop13" /><stop
         style="stop-color:#8b0000;stop-opacity:1;"
         offset="1"
         id="stop14" /></linearGradient><linearGradient
       inkscape:collect="always"
       xlink:href="#linearGradient13"
       id="linearGradient14"
       x1="15.618734"
       y1="23.184059"
       x2="85.659004"
       y2="84.682823"
       gradientUnits="userSpaceOnUse" /></defs><g
     inkscape:label="Layer 1"
     inkscape:groupmode="layer"
     id="layer1"
     transform="translate(-0.29832179,-1.8755614)"><path
       d="M 0.32635786,93.656701 C -0.04684037,93.127036 3.4220095,39.383466 3.8267206,38.965996 4.0327257,38.753494 6.0367207,38.665628 11.57603,38.629655 l 7.723665,-0.05016 0.692889,-16.55909 C 20.496509,9.9772762 20.720478,6.1598194 20.931324,5.9403473 21.334887,5.5202685 73.078353,1.5084043 73.573969,1.9028025 c 0.259664,0.2066287 0.502474,4.4270132 1.018045,17.8143355 l 0.712418,18.498655 10.060387,-0.06533 c 7.681729,-0.04989 10.563242,0.02163 10.860529,0.274519 0.58579,0.498343 5.158942,66.481672 4.591452,67.012122 -0.56021,0.52364 -23.672067,-2.21077 -24.242758,-2.84196 -0.301133,-0.33305 -0.594289,-5.857217 -1.195891,-22.37475 L 74.623992,59.514256 64.689224,59.170742 C 57.595015,58.925445 55.040087,58.748819 54.792216,58.49151 54.544761,58.234611 54.436519,55.672661 54.379038,48.791457 l -0.07611,-9.111281 -8.602577,0.03293 -8.310514,0.03181 -0.139617,8.798852 c -0.105363,6.640082 -0.225421,9.105624 -0.457427,9.337533 -0.231941,0.231844 -2.578168,0.235711 -8.852838,0.01875 l -8.240427,-0.28493 -0.739479,18.40741 C 18.37338,90.626158 18.105317,95.476464 17.866054,95.712862 17.414044,96.159464 0.69614462,94.181534 0.32635786,93.656701 Z M 35.436619,97.772642 c -0.455781,-0.571308 -0.09504,-20.781916 0.365987,-21.237836 0.461288,-0.456164 19.40696,0.904916 19.902227,1.450103 0.49693,0.547028 0.71888,21.70696 0.217949,22.189301 -0.500631,0.48207 -20.02887,-1.828354 -20.486163,-2.401568 z"
       id="path12"
       style="fill:url(#linearGradient14);fill-opacity:1"
       inkscape:path-effect="#path-effect14"
       inkscape:original-d="m 0.34552952,93.637608 c -0.46070603,-0.4607 -0.46070603,-55.789706 0,-56.250406 0.234419,-0.23442 2.65759198,-0.3175 9.26041608,-0.3175 h 8.9429174 v -18.20334 c 0,-13.8053697 0.07671,-18.28003973 0.3175,-18.52082972 0.460705,-0.4607097 55.789713,-0.4607097 56.250413,0 0.24079,0.24078999 0.3175,4.71546002 0.3175,18.52082972 v 18.20334 h 8.94292 c 6.602819,0 9.025999,0.0831 9.260419,0.3175 0.4607,0.4607 0.4607,55.789706 0,56.250406 -0.45509,0.45509 -18.753669,0.45509 -19.208749,0 -0.24079,-0.24079 -0.3175,-4.715456 -0.3175,-18.520826 v -18.20333 h -8.94292 c -6.60282,0 -9.026,-0.0831 -9.26042,-0.3175 -0.23442,-0.23442 -0.3175,-2.6576 -0.3175,-9.26042 v -8.94292 h -8.59895 -8.598963 v 8.94292 c 0,6.60282 -0.08308,9.026 -0.3175,9.26042 -0.23442,0.23442 -2.657593,0.3175 -9.260417,0.3175 H 19.87178 v 18.20333 c 0,13.80537 -0.07671,18.280036 -0.3175,18.520826 -0.455088,0.45509 -18.75366248,0.45509 -19.20875048,0 z m 37.04166648,0 c -0.455088,-0.45508 -0.455088,-18.753656 0,-19.208746 0.455088,-0.45508 18.75366,-0.45508 19.20875,0 0.45509,0.45509 0.45509,18.753666 0,19.208746 -0.45509,0.45509 -18.753662,0.45509 -19.20875,0 z" /></g></svg>
